<svg xmlns="http://www.w3.org/2000/svg" xmlns:xlink="http://www.w3.org/1999/xlink" width="165" zoomAndPan="magnify" viewBox="0 0 123.75 31.5" height="42" preserveAspectRatio="xMidYMid meet" version="1.0"><defs><g/><clipPath id="bc7cd14383"><path d="M 11.554688 3.179688 L 35.179688 3.179688 L 35.179688 26.804688 L 11.554688 26.804688 Z M 11.554688 3.179688 " clip-rule="nonzero"/></clipPath><clipPath id="a785458f38"><path d="M 11.476562 14.953125 C 11.476562 14.175781 11.550781 13.40625 11.703125 12.640625 C 11.855469 11.878906 12.078125 11.136719 12.378906 10.417969 C 12.675781 9.699219 13.039062 9.015625 13.472656 8.367188 C 13.90625 7.722656 14.394531 7.121094 14.945312 6.574219 C 15.496094 6.023438 16.09375 5.53125 16.742188 5.097656 C 17.390625 4.664062 18.074219 4.300781 18.792969 4.003906 C 19.511719 3.707031 20.253906 3.480469 21.015625 3.328125 C 21.777344 3.175781 22.550781 3.101562 23.328125 3.101562 C 24.105469 3.101562 24.875 3.175781 25.640625 3.328125 C 26.402344 3.480469 27.144531 3.707031 27.863281 4.003906 C 28.582031 4.300781 29.265625 4.664062 29.914062 5.097656 C 30.558594 5.53125 31.160156 6.023438 31.710938 6.574219 C 32.257812 7.121094 32.75 7.722656 33.183594 8.367188 C 33.617188 9.015625 33.980469 9.699219 34.277344 10.417969 C 34.578125 11.136719 34.800781 11.878906 34.953125 12.640625 C 35.105469 13.40625 35.179688 14.175781 35.179688 14.953125 C 35.179688 15.730469 35.105469 16.503906 34.953125 17.265625 C 34.800781 18.03125 34.578125 18.769531 34.277344 19.488281 C 33.980469 20.207031 33.617188 20.890625 33.183594 21.539062 C 32.75 22.1875 32.257812 22.785156 31.710938 23.335938 C 31.160156 23.886719 30.558594 24.375 29.914062 24.808594 C 29.265625 25.242188 28.582031 25.605469 27.863281 25.902344 C 27.144531 26.203125 26.402344 26.425781 25.640625 26.578125 C 24.875 26.730469 24.105469 26.804688 23.328125 26.804688 C 22.550781 26.804688 21.777344 26.730469 21.015625 26.578125 C 20.253906 26.425781 19.511719 26.203125 18.792969 25.902344 C 18.074219 25.605469 17.390625 25.242188 16.742188 24.808594 C 16.09375 24.375 15.496094 23.886719 14.945312 23.335938 C 14.394531 22.785156 13.90625 22.1875 13.472656 21.539062 C 13.039062 20.890625 12.675781 20.207031 12.378906 19.488281 C 12.078125 18.769531 11.855469 18.03125 11.703125 17.265625 C 11.550781 16.503906 11.476562 15.730469 11.476562 14.953125 Z M 11.476562 14.953125 " clip-rule="nonzero"/></clipPath><linearGradient x1="245.366997" gradientTransform="matrix(-0.0821191, -0.0474115, -0.0474115, 0.0821191, 54.817141, 5.853646)" y1="424.821272" x2="233.923243" gradientUnits="userSpaceOnUse" y2="73.756979" id="32a26d5cb6"><stop stop-opacity="1" stop-color="rgb(100%, 47.799683%, 9.799194%)" offset="0"/><stop stop-opacity="1" stop-color="rgb(100%, 47.799683%, 9.799194%)" offset="0.0315683"/><stop stop-opacity="1" stop-color="rgb(100%, 47.799683%, 9.799194%)" offset="0.125"/><stop stop-opacity="1" stop-color="rgb(100%, 47.653198%, 9.768677%)" offset="0.15625"/><stop stop-opacity="1" stop-color="rgb(100%, 47.311401%, 9.69696%)" offset="0.171875"/><stop stop-opacity="1" stop-color="rgb(100%, 46.920776%, 9.616089%)" offset="0.1875"/><stop stop-opacity="1" stop-color="rgb(100%, 46.530151%, 9.535217%)" offset="0.203125"/><stop stop-opacity="1" stop-color="rgb(100%, 46.235657%, 9.474182%)" offset="0.210938"/><stop stop-opacity="1" stop-color="rgb(100%, 46.040344%, 9.432983%)" offset="0.21875"/><stop stop-opacity="1" stop-color="rgb(100%, 45.747375%, 9.371948%)" offset="0.234375"/><stop stop-opacity="1" stop-color="rgb(100%, 45.35675%, 9.291077%)" offset="0.25"/><stop stop-opacity="1" stop-color="rgb(100%, 44.966125%, 9.208679%)" offset="0.265625"/><stop stop-opacity="1" stop-color="rgb(100%, 44.5755%, 9.127808%)" offset="0.28125"/><stop stop-opacity="1" stop-color="rgb(100%, 44.184875%, 9.046936%)" offset="0.296875"/><stop stop-opacity="1" stop-color="rgb(100%, 43.79425%, 8.966064%)" offset="0.3125"/><stop stop-opacity="1" stop-color="rgb(100%, 43.403625%, 8.883667%)" offset="0.328125"/><stop stop-opacity="1" stop-color="rgb(100%, 43.013%, 8.802795%)" offset="0.34375"/><stop stop-opacity="1" stop-color="rgb(100%, 42.622375%, 8.721924%)" offset="0.359375"/><stop stop-opacity="1" stop-color="rgb(100%, 42.23175%, 8.641052%)" offset="0.375"/><stop stop-opacity="1" stop-color="rgb(100%, 41.841125%, 8.558655%)" offset="0.390625"/><stop stop-opacity="1" stop-color="rgb(100%, 41.4505%, 8.477783%)" offset="0.40625"/><stop stop-opacity="1" stop-color="rgb(100%, 41.059875%, 8.396912%)" offset="0.421875"/><stop stop-opacity="1" stop-color="rgb(100%, 40.66925%, 8.314514%)" offset="0.4375"/><stop stop-opacity="1" stop-color="rgb(100%, 40.278625%, 8.233643%)" offset="0.453125"/><stop stop-opacity="1" stop-color="rgb(100%, 39.888%, 8.152771%)" offset="0.46875"/><stop stop-opacity="1" stop-color="rgb(100%, 39.497375%, 8.071899%)" offset="0.484375"/><stop stop-opacity="1" stop-color="rgb(100%, 39.202881%, 8.010864%)" offset="0.492188"/><stop stop-opacity="1" stop-color="rgb(100%, 39.007568%, 7.969666%)" offset="0.5"/><stop stop-opacity="1" stop-color="rgb(100%, 38.7146%, 7.90863%)" offset="0.515625"/><stop stop-opacity="1" stop-color="rgb(100%, 38.323975%, 7.827759%)" offset="0.53125"/><stop stop-opacity="1" stop-color="rgb(100%, 37.93335%, 7.746887%)" offset="0.546875"/><stop stop-opacity="1" stop-color="rgb(100%, 37.542725%, 7.66449%)" offset="0.5625"/><stop stop-opacity="1" stop-color="rgb(100%, 37.1521%, 7.583618%)" offset="0.578125"/><stop stop-opacity="1" stop-color="rgb(100%, 36.761475%, 7.502747%)" offset="0.59375"/><stop stop-opacity="1" stop-color="rgb(100%, 36.37085%, 7.420349%)" offset="0.609375"/><stop stop-opacity="1" stop-color="rgb(100%, 35.980225%, 7.339478%)" offset="0.625"/><stop stop-opacity="1" stop-color="rgb(100%, 35.5896%, 7.258606%)" offset="0.640625"/><stop stop-opacity="1" stop-color="rgb(100%, 35.198975%, 7.177734%)" offset="0.65625"/><stop stop-opacity="1" stop-color="rgb(100%, 34.80835%, 7.095337%)" offset="0.671875"/><stop stop-opacity="1" stop-color="rgb(100%, 34.417725%, 7.014465%)" offset="0.6875"/><stop stop-opacity="1" stop-color="rgb(100%, 34.0271%, 6.933594%)" offset="0.703125"/><stop stop-opacity="1" stop-color="rgb(100%, 33.636475%, 6.852722%)" offset="0.71875"/><stop stop-opacity="1" stop-color="rgb(100%, 33.24585%, 6.770325%)" offset="0.734375"/><stop stop-opacity="1" stop-color="rgb(100%, 32.974243%, 6.713867%)" offset="0.75"/><stop stop-opacity="1" stop-color="rgb(100%, 32.899475%, 6.698608%)" offset="0.968432"/><stop stop-opacity="1" stop-color="rgb(100%, 32.899475%, 6.698608%)" offset="1"/></linearGradient><clipPath id="a2aeb09c12"><path d="M 13.90625 5.535156 L 33 5.535156 L 33 24.730469 L 13.90625 24.730469 Z M 13.90625 5.535156 " clip-rule="nonzero"/></clipPath></defs><g clip-path="url(#bc7cd14383)"><g clip-path="url(#a785458f38)"><path fill="url(#32a26d5cb6)" d="M 45.410156 9.085938 L 29.273438 37.035156 L 1.324219 20.898438 L 17.460938 -7.046875 Z M 45.410156 9.085938 " fill-rule="nonzero"/></g></g><g clip-path="url(#a2aeb09c12)"><path fill="#ffffff" d="M 23.328125 5.535156 C 22.707031 5.535156 22.09375 5.59375 21.488281 5.714844 C 20.882812 5.835938 20.292969 6.011719 19.722656 6.25 C 19.152344 6.488281 18.609375 6.777344 18.09375 7.121094 C 17.578125 7.464844 17.105469 7.855469 16.667969 8.292969 C 16.230469 8.730469 15.839844 9.207031 15.496094 9.71875 C 15.152344 10.234375 14.859375 10.777344 14.625 11.347656 C 14.386719 11.917969 14.210938 12.507812 14.089844 13.113281 C 13.96875 13.722656 13.90625 14.332031 13.90625 14.953125 C 13.90625 15.570312 13.96875 16.183594 14.089844 16.789062 C 14.210938 17.394531 14.386719 17.984375 14.625 18.554688 C 14.859375 19.128906 15.152344 19.671875 15.496094 20.183594 C 15.839844 20.699219 16.230469 21.175781 16.667969 21.613281 C 17.105469 22.050781 17.578125 22.441406 18.09375 22.785156 C 18.609375 23.128906 19.152344 23.417969 19.722656 23.652344 C 20.292969 23.890625 20.882812 24.070312 21.488281 24.191406 C 22.09375 24.3125 22.707031 24.371094 23.328125 24.371094 C 23.945312 24.371094 24.558594 24.3125 25.164062 24.191406 C 25.769531 24.070312 26.359375 23.890625 26.929688 23.652344 C 27.503906 23.417969 28.046875 23.128906 28.558594 22.785156 C 29.074219 22.441406 29.550781 22.050781 29.988281 21.613281 C 30.421875 21.175781 30.8125 20.699219 31.15625 20.183594 C 31.5 19.671875 31.792969 19.128906 32.027344 18.554688 C 32.265625 17.984375 32.445312 17.394531 32.5625 16.789062 C 32.683594 16.183594 32.746094 15.570312 32.746094 14.953125 C 32.746094 14.332031 32.683594 13.722656 32.5625 13.113281 C 32.445312 12.507812 32.265625 11.917969 32.027344 11.347656 C 31.792969 10.777344 31.5 10.234375 31.15625 9.71875 C 30.8125 9.207031 30.421875 8.730469 29.988281 8.292969 C 29.550781 7.855469 29.074219 7.464844 28.558594 7.121094 C 28.046875 6.777344 27.503906 6.488281 26.929688 6.25 C 26.359375 6.011719 25.769531 5.835938 25.164062 5.714844 C 24.558594 5.59375 23.945312 5.535156 23.328125 5.535156 Z M 24.671875 18.238281 C 24.496094 18.265625 24.339844 18.21875 24.203125 18.101562 C 24.070312 17.984375 24 17.839844 24 17.660156 L 24 16.113281 C 24 15.976562 24.039062 15.859375 24.125 15.753906 C 24.207031 15.644531 24.316406 15.578125 24.445312 15.546875 C 24.695312 15.492188 24.925781 15.390625 25.136719 15.246094 C 25.347656 15.101562 25.523438 14.925781 25.667969 14.714844 C 25.8125 14.503906 25.910156 14.273438 25.96875 14.023438 C 26.023438 13.773438 26.03125 13.523438 25.992188 13.269531 C 25.953125 13.019531 25.871094 12.78125 25.742188 12.5625 C 25.613281 12.339844 25.449219 12.152344 25.246094 11.992188 C 25.046875 11.835938 24.824219 11.71875 24.578125 11.644531 C 24.335938 11.574219 24.085938 11.546875 23.832031 11.566406 C 23.574219 11.589844 23.335938 11.65625 23.105469 11.769531 C 22.875 11.882812 22.675781 12.035156 22.503906 12.222656 C 22.332031 12.414062 22.203125 12.625 22.109375 12.863281 C 22.019531 13.105469 21.976562 13.351562 21.980469 13.605469 L 21.980469 19.996094 C 21.980469 20.132812 21.957031 20.261719 21.902344 20.382812 C 21.851562 20.507812 21.78125 20.617188 21.683594 20.710938 C 21.589844 20.804688 21.480469 20.878906 21.359375 20.929688 C 21.234375 20.980469 21.105469 21.007812 20.972656 21.007812 L 20.300781 21.007812 C 20.164062 21.007812 20.035156 20.980469 19.914062 20.929688 C 19.789062 20.878906 19.679688 20.804688 19.585938 20.710938 C 19.492188 20.617188 19.417969 20.507812 19.367188 20.382812 C 19.316406 20.261719 19.289062 20.132812 19.289062 19.996094 L 19.289062 13.726562 C 19.285156 13.425781 19.3125 13.125 19.367188 12.824219 C 19.417969 12.527344 19.5 12.234375 19.609375 11.953125 C 19.71875 11.667969 19.855469 11.398438 20.015625 11.140625 C 20.175781 10.882812 20.359375 10.644531 20.5625 10.421875 C 20.769531 10.199219 20.996094 9.996094 21.238281 9.816406 C 21.484375 9.636719 21.742188 9.484375 22.019531 9.351562 C 22.292969 9.222656 22.574219 9.117188 22.867188 9.042969 C 23.164062 8.964844 23.460938 8.917969 23.765625 8.898438 C 24.355469 8.890625 24.925781 8.988281 25.476562 9.195312 C 26.03125 9.402344 26.527344 9.703125 26.964844 10.097656 C 27.40625 10.492188 27.757812 10.953125 28.027344 11.480469 C 28.292969 12.007812 28.453125 12.5625 28.511719 13.152344 C 28.566406 13.738281 28.515625 14.316406 28.355469 14.882812 C 28.195312 15.453125 27.9375 15.972656 27.582031 16.441406 C 27.226562 16.914062 26.796875 17.304688 26.296875 17.613281 C 25.792969 17.925781 25.253906 18.132812 24.671875 18.238281 Z M 24.671875 18.238281 " fill-opacity="1" fill-rule="nonzero"/></g><g fill="#ff7a19" fill-opacity="1"><g transform="translate(37.603046, 19.615078)"><g><path d="M 4.796875 -9.609375 C 5.441406 -9.609375 6.019531 -9.460938 6.53125 -9.171875 C 7.039062 -8.890625 7.445312 -8.5 7.75 -8 C 8.050781 -7.5 8.203125 -6.929688 8.203125 -6.296875 C 8.203125 -5.671875 8.050781 -5.109375 7.75 -4.609375 C 7.457031 -4.109375 7.050781 -3.71875 6.53125 -3.4375 C 6.019531 -3.15625 5.441406 -3.015625 4.796875 -3.015625 L 3.1875 -3.015625 L 3.1875 0 L 1.09375 0 L 1.09375 -9.609375 Z M 4.703125 -4.9375 C 5.117188 -4.9375 5.453125 -5.066406 5.703125 -5.328125 C 5.953125 -5.585938 6.078125 -5.910156 6.078125 -6.296875 C 6.078125 -6.703125 5.953125 -7.035156 5.703125 -7.296875 C 5.453125 -7.554688 5.117188 -7.6875 4.703125 -7.6875 L 3.1875 -7.6875 L 3.1875 -4.9375 Z M 4.703125 -4.9375 "/></g></g></g><g fill="#ff7a19" fill-opacity="1"><g transform="translate(45.82557, 19.615078)"><g><path d="M 8.15625 -3.734375 C 8.15625 -3.546875 8.140625 -3.347656 8.109375 -3.140625 L 2.515625 -3.140625 C 2.597656 -2.640625 2.796875 -2.253906 3.109375 -1.984375 C 3.429688 -1.710938 3.835938 -1.578125 4.328125 -1.578125 C 4.671875 -1.578125 4.976562 -1.648438 5.25 -1.796875 C 5.53125 -1.953125 5.742188 -2.164062 5.890625 -2.4375 L 8 -2.4375 C 7.726562 -1.625 7.265625 -0.976562 6.609375 -0.5 C 5.953125 -0.03125 5.191406 0.203125 4.328125 0.203125 C 3.597656 0.203125 2.941406 0.03125 2.359375 -0.3125 C 1.773438 -0.65625 1.316406 -1.117188 0.984375 -1.703125 C 0.648438 -2.296875 0.484375 -2.960938 0.484375 -3.703125 C 0.484375 -4.453125 0.648438 -5.117188 0.984375 -5.703125 C 1.316406 -6.296875 1.773438 -6.765625 2.359375 -7.109375 C 2.941406 -7.453125 3.597656 -7.625 4.328125 -7.625 C 5.085938 -7.625 5.753906 -7.445312 6.328125 -7.09375 C 6.910156 -6.738281 7.359375 -6.269531 7.671875 -5.6875 C 7.992188 -5.101562 8.15625 -4.453125 8.15625 -3.734375 Z M 4.328125 -5.921875 C 3.878906 -5.921875 3.5 -5.796875 3.1875 -5.546875 C 2.882812 -5.296875 2.675781 -4.953125 2.5625 -4.515625 L 6.15625 -4.515625 C 5.863281 -5.453125 5.253906 -5.921875 4.328125 -5.921875 Z M 4.328125 -5.921875 "/></g></g></g><g fill="#ff7a19" fill-opacity="1"><g transform="translate(54.130455, 19.615078)"><g><path d="M 5.015625 -7.625 C 5.753906 -7.625 6.414062 -7.453125 7 -7.109375 C 7.59375 -6.773438 8.054688 -6.3125 8.390625 -5.71875 C 8.734375 -5.125 8.90625 -4.453125 8.90625 -3.703125 C 8.90625 -2.953125 8.734375 -2.28125 8.390625 -1.6875 C 8.054688 -1.101562 7.59375 -0.640625 7 -0.296875 C 6.414062 0.046875 5.753906 0.21875 5.015625 0.21875 C 4.628906 0.21875 4.257812 0.160156 3.90625 0.046875 C 3.5625 -0.0546875 3.25 -0.203125 2.96875 -0.390625 L 2.96875 2.671875 L 0.96875 2.671875 L 0.96875 -7.421875 L 2.296875 -7.421875 L 2.640625 -6.75 C 2.953125 -7.019531 3.304688 -7.234375 3.703125 -7.390625 C 4.109375 -7.546875 4.546875 -7.625 5.015625 -7.625 Z M 4.84375 -1.671875 C 5.226562 -1.671875 5.570312 -1.757812 5.875 -1.9375 C 6.1875 -2.125 6.425781 -2.367188 6.59375 -2.671875 C 6.769531 -2.972656 6.859375 -3.316406 6.859375 -3.703125 C 6.859375 -4.085938 6.769531 -4.429688 6.59375 -4.734375 C 6.425781 -5.046875 6.1875 -5.289062 5.875 -5.46875 C 5.570312 -5.644531 5.226562 -5.734375 4.84375 -5.734375 C 4.445312 -5.734375 4.097656 -5.644531 3.796875 -5.46875 C 3.492188 -5.289062 3.253906 -5.046875 3.078125 -4.734375 C 2.910156 -4.429688 2.828125 -4.085938 2.828125 -3.703125 C 2.828125 -3.316406 2.910156 -2.972656 3.078125 -2.671875 C 3.253906 -2.367188 3.492188 -2.125 3.796875 -1.9375 C 4.097656 -1.757812 4.445312 -1.671875 4.84375 -1.671875 Z M 4.84375 -1.671875 "/></g></g></g><g fill="#ff7a19" fill-opacity="1"><g transform="translate(63.176606, 19.615078)"><g><path d="M 5.3125 -5.03125 L 10.4375 -5.03125 C 10.425781 -4.269531 10.300781 -3.570312 10.0625 -2.9375 C 9.820312 -2.300781 9.484375 -1.75 9.046875 -1.28125 C 8.617188 -0.8125 8.101562 -0.445312 7.5 -0.1875 C 6.90625 0.0703125 6.242188 0.203125 5.515625 0.203125 C 4.816406 0.203125 4.164062 0.0820312 3.5625 -0.15625 C 2.957031 -0.40625 2.425781 -0.753906 1.96875 -1.203125 C 1.519531 -1.648438 1.171875 -2.179688 0.921875 -2.796875 C 0.671875 -3.410156 0.546875 -4.078125 0.546875 -4.796875 C 0.546875 -5.515625 0.664062 -6.175781 0.90625 -6.78125 C 1.15625 -7.394531 1.5 -7.925781 1.9375 -8.375 C 2.382812 -8.832031 2.910156 -9.1875 3.515625 -9.4375 C 4.117188 -9.6875 4.773438 -9.8125 5.484375 -9.8125 C 6.273438 -9.8125 7.007812 -9.65625 7.6875 -9.34375 C 8.363281 -9.039062 8.929688 -8.613281 9.390625 -8.0625 C 9.847656 -7.507812 10.148438 -6.875 10.296875 -6.15625 L 8.15625 -6.15625 C 7.957031 -6.675781 7.617188 -7.085938 7.140625 -7.390625 C 6.660156 -7.691406 6.117188 -7.84375 5.515625 -7.84375 C 4.953125 -7.84375 4.453125 -7.710938 4.015625 -7.453125 C 3.585938 -7.191406 3.253906 -6.832031 3.015625 -6.375 C 2.773438 -5.925781 2.65625 -5.398438 2.65625 -4.796875 C 2.65625 -4.203125 2.769531 -3.675781 3 -3.21875 C 3.238281 -2.769531 3.570312 -2.414062 4 -2.15625 C 4.4375 -1.894531 4.941406 -1.765625 5.515625 -1.765625 C 6.140625 -1.765625 6.695312 -1.914062 7.1875 -2.21875 C 7.6875 -2.519531 8.023438 -2.921875 8.203125 -3.421875 L 5.3125 -3.421875 Z M 5.3125 -5.03125 "/></g></g></g><g fill="#ff7a19" fill-opacity="1"><g transform="translate(73.801374, 19.615078)"><g><path d="M 7.015625 -7.4375 L 8.515625 -7.4375 L 8.515625 -0.015625 L 6.9375 -0.015625 L 6.765625 -0.671875 C 6.453125 -0.398438 6.085938 -0.1875 5.671875 -0.03125 C 5.265625 0.125 4.832031 0.203125 4.375 0.203125 C 3.625 0.203125 2.957031 0.03125 2.375 -0.3125 C 1.789062 -0.65625 1.328125 -1.117188 0.984375 -1.703125 C 0.648438 -2.296875 0.484375 -2.96875 0.484375 -3.71875 C 0.484375 -4.457031 0.648438 -5.125 0.984375 -5.71875 C 1.328125 -6.3125 1.789062 -6.773438 2.375 -7.109375 C 2.957031 -7.453125 3.625 -7.625 4.375 -7.625 C 4.84375 -7.625 5.28125 -7.539062 5.6875 -7.375 C 6.101562 -7.21875 6.472656 -7 6.796875 -6.71875 Z M 4.53125 -1.6875 C 4.914062 -1.6875 5.257812 -1.773438 5.5625 -1.953125 C 5.875 -2.128906 6.113281 -2.367188 6.28125 -2.671875 C 6.457031 -2.972656 6.546875 -3.320312 6.546875 -3.71875 C 6.546875 -4.101562 6.457031 -4.445312 6.28125 -4.75 C 6.113281 -5.0625 5.875 -5.304688 5.5625 -5.484375 C 5.257812 -5.660156 4.914062 -5.75 4.53125 -5.75 C 4.132812 -5.75 3.785156 -5.660156 3.484375 -5.484375 C 3.179688 -5.304688 2.941406 -5.0625 2.765625 -4.75 C 2.597656 -4.445312 2.515625 -4.101562 2.515625 -3.71875 C 2.515625 -3.320312 2.597656 -2.972656 2.765625 -2.671875 C 2.941406 -2.367188 3.179688 -2.128906 3.484375 -1.953125 C 3.785156 -1.773438 4.132812 -1.6875 4.53125 -1.6875 Z M 4.53125 -1.6875 "/></g></g></g><g fill="#ff7a19" fill-opacity="1"><g transform="translate(82.957342, 19.615078)"><g><path d="M 6.953125 -7.421875 L 8.25 -7.421875 L 8.25 -0.859375 C 8.25 -0.0859375 8.09375 0.578125 7.78125 1.140625 C 7.476562 1.703125 7.039062 2.132812 6.46875 2.4375 C 5.90625 2.738281 5.238281 2.890625 4.46875 2.890625 C 3.457031 2.890625 2.613281 2.644531 1.9375 2.15625 C 1.269531 1.664062 0.851562 1.003906 0.6875 0.171875 L 2.671875 0.171875 C 2.785156 0.492188 3.015625 0.738281 3.359375 0.90625 C 3.703125 1.082031 4.054688 1.171875 4.421875 1.171875 C 4.929688 1.171875 5.367188 1.015625 5.734375 0.703125 C 6.097656 0.398438 6.28125 -0.0234375 6.28125 -0.578125 L 6.28125 -0.84375 C 5.988281 -0.632812 5.660156 -0.472656 5.296875 -0.359375 C 4.941406 -0.242188 4.5625 -0.1875 4.15625 -0.1875 C 3.46875 -0.1875 2.84375 -0.351562 2.28125 -0.6875 C 1.726562 -1.019531 1.289062 -1.460938 0.96875 -2.015625 C 0.644531 -2.578125 0.484375 -3.207031 0.484375 -3.90625 C 0.484375 -4.59375 0.644531 -5.21875 0.96875 -5.78125 C 1.289062 -6.351562 1.726562 -6.800781 2.28125 -7.125 C 2.84375 -7.457031 3.46875 -7.625 4.15625 -7.625 C 4.644531 -7.625 5.097656 -7.539062 5.515625 -7.375 C 5.941406 -7.207031 6.316406 -6.972656 6.640625 -6.671875 Z M 4.390625 -1.984375 C 4.941406 -1.984375 5.394531 -2.160156 5.75 -2.515625 C 6.113281 -2.878906 6.296875 -3.34375 6.296875 -3.90625 C 6.296875 -4.445312 6.117188 -4.898438 5.765625 -5.265625 C 5.410156 -5.628906 4.953125 -5.8125 4.390625 -5.8125 C 3.847656 -5.8125 3.398438 -5.628906 3.046875 -5.265625 C 2.691406 -4.898438 2.515625 -4.445312 2.515625 -3.90625 C 2.515625 -3.34375 2.691406 -2.878906 3.046875 -2.515625 C 3.398438 -2.160156 3.847656 -1.984375 4.390625 -1.984375 Z M 4.390625 -1.984375 "/></g></g></g><g fill="#ff7a19" fill-opacity="1"><g transform="translate(91.852494, 19.615078)"><g><path d="M 8.15625 -3.734375 C 8.15625 -3.546875 8.140625 -3.347656 8.109375 -3.140625 L 2.515625 -3.140625 C 2.597656 -2.640625 2.796875 -2.253906 3.109375 -1.984375 C 3.429688 -1.710938 3.835938 -1.578125 4.328125 -1.578125 C 4.671875 -1.578125 4.976562 -1.648438 5.25 -1.796875 C 5.53125 -1.953125 5.742188 -2.164062 5.890625 -2.4375 L 8 -2.4375 C 7.726562 -1.625 7.265625 -0.976562 6.609375 -0.5 C 5.953125 -0.03125 5.191406 0.203125 4.328125 0.203125 C 3.597656 0.203125 2.941406 0.03125 2.359375 -0.3125 C 1.773438 -0.65625 1.316406 -1.117188 0.984375 -1.703125 C 0.648438 -2.296875 0.484375 -2.960938 0.484375 -3.703125 C 0.484375 -4.453125 0.648438 -5.117188 0.984375 -5.703125 C 1.316406 -6.296875 1.773438 -6.765625 2.359375 -7.109375 C 2.941406 -7.453125 3.597656 -7.625 4.328125 -7.625 C 5.085938 -7.625 5.753906 -7.445312 6.328125 -7.09375 C 6.910156 -6.738281 7.359375 -6.269531 7.671875 -5.6875 C 7.992188 -5.101562 8.15625 -4.453125 8.15625 -3.734375 Z M 4.328125 -5.921875 C 3.878906 -5.921875 3.5 -5.796875 3.1875 -5.546875 C 2.882812 -5.296875 2.675781 -4.953125 2.5625 -4.515625 L 6.15625 -4.515625 C 5.863281 -5.453125 5.253906 -5.921875 4.328125 -5.921875 Z M 4.328125 -5.921875 "/></g></g></g></svg>