<svg xmlns="http://www.w3.org/2000/svg" xmlns:xlink="http://www.w3.org/1999/xlink" width="165" zoomAndPan="magnify" viewBox="0 0 123.75 31.5" height="42" preserveAspectRatio="xMidYMid meet" version="1.0"><defs><g/><clipPath id="fbba304a02"><path d="M 12.746094 4.910156 L 35.632812 4.910156 L 35.632812 27.796875 L 12.746094 27.796875 Z M 12.746094 4.910156 " clip-rule="nonzero"/></clipPath><clipPath id="3a214d51a9"><path d="M 35.734375 16.402344 C 35.734375 17.160156 35.664062 17.90625 35.515625 18.648438 C 35.367188 19.386719 35.148438 20.105469 34.859375 20.804688 C 34.570312 21.5 34.21875 22.164062 33.796875 22.789062 C 33.378906 23.417969 32.902344 24 32.367188 24.53125 C 31.835938 25.066406 31.253906 25.542969 30.628906 25.960938 C 30 26.382812 29.335938 26.734375 28.640625 27.023438 C 27.941406 27.3125 27.222656 27.53125 26.484375 27.679688 C 25.742188 27.824219 24.996094 27.898438 24.242188 27.898438 C 23.484375 27.898438 22.738281 27.824219 21.996094 27.679688 C 21.257812 27.53125 20.539062 27.3125 19.839844 27.023438 C 19.144531 26.734375 18.480469 26.382812 17.855469 25.960938 C 17.226562 25.542969 16.644531 25.066406 16.113281 24.53125 C 15.578125 24 15.101562 23.417969 14.683594 22.789062 C 14.261719 22.164062 13.910156 21.5 13.621094 20.804688 C 13.332031 20.105469 13.113281 19.386719 12.964844 18.648438 C 12.820312 17.90625 12.746094 17.160156 12.746094 16.402344 C 12.746094 15.648438 12.820312 14.902344 12.964844 14.160156 C 13.113281 13.421875 13.332031 12.703125 13.621094 12.003906 C 13.910156 11.308594 14.261719 10.644531 14.683594 10.019531 C 15.101562 9.390625 15.578125 8.808594 16.113281 8.277344 C 16.644531 7.742188 17.226562 7.265625 17.855469 6.847656 C 18.480469 6.425781 19.144531 6.074219 19.839844 5.785156 C 20.539062 5.496094 21.257812 5.277344 21.996094 5.128906 C 22.738281 4.984375 23.484375 4.910156 24.242188 4.910156 C 24.996094 4.910156 25.742188 4.984375 26.484375 5.128906 C 27.222656 5.277344 27.941406 5.496094 28.640625 5.785156 C 29.335938 6.074219 30 6.425781 30.628906 6.847656 C 31.253906 7.265625 31.835938 7.742188 32.367188 8.277344 C 32.902344 8.808594 33.378906 9.390625 33.796875 10.019531 C 34.21875 10.644531 34.570312 11.308594 34.859375 12.003906 C 35.148438 12.703125 35.367188 13.421875 35.515625 14.160156 C 35.664062 14.902344 35.734375 15.648438 35.734375 16.402344 Z M 35.734375 16.402344 " clip-rule="nonzero"/></clipPath><linearGradient x1="245.36208" gradientTransform="matrix(0.0796416, 0.0459811, 0.0459811, -0.0796416, -6.298665, 25.229554)" y1="424.670419" x2="233.931065" gradientUnits="userSpaceOnUse" y2="73.996949" id="54268f1bcb"><stop stop-opacity="1" stop-color="rgb(0%, 28.999329%, 67.799377%)" offset="0"/><stop stop-opacity="1" stop-color="rgb(0%, 28.999329%, 67.799377%)" offset="0.0315683"/><stop stop-opacity="1" stop-color="rgb(0%, 28.999329%, 67.799377%)" offset="0.125"/><stop stop-opacity="1" stop-color="rgb(0%, 28.999329%, 67.799377%)" offset="0.140625"/><stop stop-opacity="1" stop-color="rgb(0.0762939%, 29.147339%, 67.912292%)" offset="0.148438"/><stop stop-opacity="1" stop-color="rgb(0.296021%, 29.573059%, 68.235779%)" offset="0.152344"/><stop stop-opacity="1" stop-color="rgb(0.440979%, 29.850769%, 68.44635%)" offset="0.15625"/><stop stop-opacity="1" stop-color="rgb(0.584412%, 30.128479%, 68.656921%)" offset="0.160156"/><stop stop-opacity="1" stop-color="rgb(0.72937%, 30.406189%, 68.867493%)" offset="0.164062"/><stop stop-opacity="1" stop-color="rgb(0.872803%, 30.683899%, 69.078064%)" offset="0.167969"/><stop stop-opacity="1" stop-color="rgb(1.017761%, 30.961609%, 69.290161%)" offset="0.171875"/><stop stop-opacity="1" stop-color="rgb(1.161194%, 31.239319%, 69.500732%)" offset="0.175781"/><stop stop-opacity="1" stop-color="rgb(1.306152%, 31.517029%, 69.711304%)" offset="0.179688"/><stop stop-opacity="1" stop-color="rgb(1.449585%, 31.794739%, 69.921875%)" offset="0.183594"/><stop stop-opacity="1" stop-color="rgb(1.593018%, 32.072449%, 70.132446%)" offset="0.1875"/><stop stop-opacity="1" stop-color="rgb(1.73645%, 32.350159%, 70.343018%)" offset="0.191406"/><stop stop-opacity="1" stop-color="rgb(1.881409%, 32.627869%, 70.555115%)" offset="0.195312"/><stop stop-opacity="1" stop-color="rgb(2.024841%, 32.905579%, 70.765686%)" offset="0.199219"/><stop stop-opacity="1" stop-color="rgb(2.1698%, 33.183289%, 70.976257%)" offset="0.203125"/><stop stop-opacity="1" stop-color="rgb(2.313232%, 33.460999%, 71.186829%)" offset="0.207031"/><stop stop-opacity="1" stop-color="rgb(2.458191%, 33.738708%, 71.398926%)" offset="0.210938"/><stop stop-opacity="1" stop-color="rgb(2.601624%, 34.016418%, 71.609497%)" offset="0.214844"/><stop stop-opacity="1" stop-color="rgb(2.746582%, 34.294128%, 71.820068%)" offset="0.21875"/><stop stop-opacity="1" stop-color="rgb(2.890015%, 34.571838%, 72.03064%)" offset="0.222656"/><stop stop-opacity="1" stop-color="rgb(3.034973%, 34.849548%, 72.241211%)" offset="0.226562"/><stop stop-opacity="1" stop-color="rgb(3.178406%, 35.125732%, 72.451782%)" offset="0.230469"/><stop stop-opacity="1" stop-color="rgb(3.321838%, 35.403442%, 72.663879%)" offset="0.234375"/><stop stop-opacity="1" stop-color="rgb(3.465271%, 35.681152%, 72.874451%)" offset="0.238281"/><stop stop-opacity="1" stop-color="rgb(3.610229%, 35.958862%, 73.085022%)" offset="0.242187"/><stop stop-opacity="1" stop-color="rgb(3.753662%, 36.236572%, 73.295593%)" offset="0.246094"/><stop stop-opacity="1" stop-color="rgb(3.898621%, 36.514282%, 73.506165%)" offset="0.25"/><stop stop-opacity="1" stop-color="rgb(4.042053%, 36.791992%, 73.716736%)" offset="0.253906"/><stop stop-opacity="1" stop-color="rgb(4.187012%, 37.069702%, 73.928833%)" offset="0.257812"/><stop stop-opacity="1" stop-color="rgb(4.330444%, 37.347412%, 74.139404%)" offset="0.261719"/><stop stop-opacity="1" stop-color="rgb(4.475403%, 37.625122%, 74.349976%)" offset="0.265625"/><stop stop-opacity="1" stop-color="rgb(4.618835%, 37.902832%, 74.560547%)" offset="0.269531"/><stop stop-opacity="1" stop-color="rgb(4.763794%, 38.180542%, 74.771118%)" offset="0.273438"/><stop stop-opacity="1" stop-color="rgb(4.907227%, 38.458252%, 74.981689%)" offset="0.277344"/><stop stop-opacity="1" stop-color="rgb(5.050659%, 38.735962%, 75.193787%)" offset="0.28125"/><stop stop-opacity="1" stop-color="rgb(5.194092%, 39.013672%, 75.404358%)" offset="0.285156"/><stop stop-opacity="1" stop-color="rgb(5.33905%, 39.291382%, 75.614929%)" offset="0.289062"/><stop stop-opacity="1" stop-color="rgb(5.482483%, 39.569092%, 75.8255%)" offset="0.292969"/><stop stop-opacity="1" stop-color="rgb(5.627441%, 39.846802%, 76.037598%)" offset="0.296875"/><stop stop-opacity="1" stop-color="rgb(5.770874%, 40.124512%, 76.248169%)" offset="0.300781"/><stop stop-opacity="1" stop-color="rgb(5.915833%, 40.402222%, 76.45874%)" offset="0.304688"/><stop stop-opacity="1" stop-color="rgb(6.059265%, 40.679932%, 76.669312%)" offset="0.308594"/><stop stop-opacity="1" stop-color="rgb(6.204224%, 40.957642%, 76.879883%)" offset="0.3125"/><stop stop-opacity="1" stop-color="rgb(6.347656%, 41.233826%, 77.090454%)" offset="0.316406"/><stop stop-opacity="1" stop-color="rgb(6.492615%, 41.511536%, 77.302551%)" offset="0.320312"/><stop stop-opacity="1" stop-color="rgb(6.636047%, 41.789246%, 77.513123%)" offset="0.324219"/><stop stop-opacity="1" stop-color="rgb(6.77948%, 42.066956%, 77.723694%)" offset="0.328125"/><stop stop-opacity="1" stop-color="rgb(6.922913%, 42.344666%, 77.934265%)" offset="0.332031"/><stop stop-opacity="1" stop-color="rgb(7.067871%, 42.622375%, 78.144836%)" offset="0.335937"/><stop stop-opacity="1" stop-color="rgb(7.211304%, 42.900085%, 78.355408%)" offset="0.339844"/><stop stop-opacity="1" stop-color="rgb(7.356262%, 43.177795%, 78.567505%)" offset="0.34375"/><stop stop-opacity="1" stop-color="rgb(7.499695%, 43.455505%, 78.778076%)" offset="0.347656"/><stop stop-opacity="1" stop-color="rgb(7.644653%, 43.733215%, 78.988647%)" offset="0.351562"/><stop stop-opacity="1" stop-color="rgb(7.788086%, 44.010925%, 79.199219%)" offset="0.355469"/><stop stop-opacity="1" stop-color="rgb(7.933044%, 44.288635%, 79.411316%)" offset="0.359375"/><stop stop-opacity="1" stop-color="rgb(8.076477%, 44.566345%, 79.621887%)" offset="0.363281"/><stop stop-opacity="1" stop-color="rgb(8.21991%, 44.844055%, 79.832458%)" offset="0.367187"/><stop stop-opacity="1" stop-color="rgb(8.363342%, 45.121765%, 80.04303%)" offset="0.371094"/><stop stop-opacity="1" stop-color="rgb(8.508301%, 45.399475%, 80.253601%)" offset="0.375"/><stop stop-opacity="1" stop-color="rgb(8.651733%, 45.677185%, 80.464172%)" offset="0.378906"/><stop stop-opacity="1" stop-color="rgb(8.796692%, 45.954895%, 80.67627%)" offset="0.382812"/><stop stop-opacity="1" stop-color="rgb(8.940125%, 46.232605%, 80.886841%)" offset="0.386719"/><stop stop-opacity="1" stop-color="rgb(9.085083%, 46.510315%, 81.097412%)" offset="0.390625"/><stop stop-opacity="1" stop-color="rgb(9.228516%, 46.788025%, 81.307983%)" offset="0.394531"/><stop stop-opacity="1" stop-color="rgb(9.373474%, 47.065735%, 81.518555%)" offset="0.398437"/><stop stop-opacity="1" stop-color="rgb(9.516907%, 47.343445%, 81.729126%)" offset="0.402344"/><stop stop-opacity="1" stop-color="rgb(9.661865%, 47.621155%, 81.941223%)" offset="0.40625"/><stop stop-opacity="1" stop-color="rgb(9.805298%, 47.897339%, 82.151794%)" offset="0.410156"/><stop stop-opacity="1" stop-color="rgb(9.94873%, 48.175049%, 82.362366%)" offset="0.414062"/><stop stop-opacity="1" stop-color="rgb(10.092163%, 48.452759%, 82.572937%)" offset="0.417969"/><stop stop-opacity="1" stop-color="rgb(10.237122%, 48.730469%, 82.783508%)" offset="0.421875"/><stop stop-opacity="1" stop-color="rgb(10.380554%, 49.008179%, 82.99408%)" offset="0.425781"/><stop stop-opacity="1" stop-color="rgb(10.525513%, 49.285889%, 83.206177%)" offset="0.429687"/><stop stop-opacity="1" stop-color="rgb(10.668945%, 49.563599%, 83.416748%)" offset="0.433594"/><stop stop-opacity="1" stop-color="rgb(10.813904%, 49.841309%, 83.627319%)" offset="0.4375"/><stop stop-opacity="1" stop-color="rgb(10.957336%, 50.119019%, 83.837891%)" offset="0.441406"/><stop stop-opacity="1" stop-color="rgb(11.102295%, 50.396729%, 84.049988%)" offset="0.445312"/><stop stop-opacity="1" stop-color="rgb(11.245728%, 50.674438%, 84.260559%)" offset="0.449219"/><stop stop-opacity="1" stop-color="rgb(11.390686%, 50.952148%, 84.47113%)" offset="0.453125"/><stop stop-opacity="1" stop-color="rgb(11.534119%, 51.229858%, 84.681702%)" offset="0.457031"/><stop stop-opacity="1" stop-color="rgb(11.677551%, 51.507568%, 84.892273%)" offset="0.460937"/><stop stop-opacity="1" stop-color="rgb(11.820984%, 51.785278%, 85.102844%)" offset="0.464844"/><stop stop-opacity="1" stop-color="rgb(11.965942%, 52.062988%, 85.314941%)" offset="0.46875"/><stop stop-opacity="1" stop-color="rgb(12.109375%, 52.340698%, 85.525513%)" offset="0.472656"/><stop stop-opacity="1" stop-color="rgb(12.254333%, 52.618408%, 85.736084%)" offset="0.476562"/><stop stop-opacity="1" stop-color="rgb(12.397766%, 52.896118%, 85.946655%)" offset="0.480469"/><stop stop-opacity="1" stop-color="rgb(12.542725%, 53.173828%, 86.157227%)" offset="0.484375"/><stop stop-opacity="1" stop-color="rgb(12.686157%, 53.451538%, 86.367798%)" offset="0.488281"/><stop stop-opacity="1" stop-color="rgb(12.831116%, 53.729248%, 86.579895%)" offset="0.492187"/><stop stop-opacity="1" stop-color="rgb(12.974548%, 54.006958%, 86.790466%)" offset="0.496094"/><stop stop-opacity="1" stop-color="rgb(13.117981%, 54.284668%, 87.001038%)" offset="0.5"/><stop stop-opacity="1" stop-color="rgb(13.261414%, 54.560852%, 87.211609%)" offset="0.503906"/><stop stop-opacity="1" stop-color="rgb(13.406372%, 54.838562%, 87.423706%)" offset="0.507812"/><stop stop-opacity="1" stop-color="rgb(13.549805%, 55.116272%, 87.634277%)" offset="0.511719"/><stop stop-opacity="1" stop-color="rgb(13.694763%, 55.393982%, 87.844849%)" offset="0.515625"/><stop stop-opacity="1" stop-color="rgb(13.838196%, 55.671692%, 88.05542%)" offset="0.519531"/><stop stop-opacity="1" stop-color="rgb(13.983154%, 55.949402%, 88.265991%)" offset="0.523438"/><stop stop-opacity="1" stop-color="rgb(14.126587%, 56.227112%, 88.476562%)" offset="0.527344"/><stop stop-opacity="1" stop-color="rgb(14.271545%, 56.504822%, 88.68866%)" offset="0.53125"/><stop stop-opacity="1" stop-color="rgb(14.414978%, 56.782532%, 88.899231%)" offset="0.535156"/><stop stop-opacity="1" stop-color="rgb(14.559937%, 57.060242%, 89.109802%)" offset="0.539062"/><stop stop-opacity="1" stop-color="rgb(14.703369%, 57.337952%, 89.320374%)" offset="0.542969"/><stop stop-opacity="1" stop-color="rgb(14.846802%, 57.615662%, 89.530945%)" offset="0.546875"/><stop stop-opacity="1" stop-color="rgb(14.990234%, 57.893372%, 89.741516%)" offset="0.550781"/><stop stop-opacity="1" stop-color="rgb(15.135193%, 58.171082%, 89.953613%)" offset="0.554687"/><stop stop-opacity="1" stop-color="rgb(15.278625%, 58.448792%, 90.164185%)" offset="0.558594"/><stop stop-opacity="1" stop-color="rgb(15.423584%, 58.726501%, 90.374756%)" offset="0.5625"/><stop stop-opacity="1" stop-color="rgb(15.567017%, 59.004211%, 90.585327%)" offset="0.566406"/><stop stop-opacity="1" stop-color="rgb(15.711975%, 59.281921%, 90.797424%)" offset="0.570312"/><stop stop-opacity="1" stop-color="rgb(15.855408%, 59.559631%, 91.007996%)" offset="0.574219"/><stop stop-opacity="1" stop-color="rgb(16.000366%, 59.837341%, 91.218567%)" offset="0.578125"/><stop stop-opacity="1" stop-color="rgb(16.143799%, 60.115051%, 91.429138%)" offset="0.582031"/><stop stop-opacity="1" stop-color="rgb(16.288757%, 60.392761%, 91.639709%)" offset="0.585938"/><stop stop-opacity="1" stop-color="rgb(16.43219%, 60.670471%, 91.850281%)" offset="0.589844"/><stop stop-opacity="1" stop-color="rgb(16.575623%, 60.948181%, 92.062378%)" offset="0.59375"/><stop stop-opacity="1" stop-color="rgb(16.719055%, 61.224365%, 92.272949%)" offset="0.597656"/><stop stop-opacity="1" stop-color="rgb(16.864014%, 61.502075%, 92.483521%)" offset="0.601562"/><stop stop-opacity="1" stop-color="rgb(17.007446%, 61.779785%, 92.694092%)" offset="0.605469"/><stop stop-opacity="1" stop-color="rgb(17.152405%, 62.057495%, 92.904663%)" offset="0.609375"/><stop stop-opacity="1" stop-color="rgb(17.295837%, 62.335205%, 93.115234%)" offset="0.613281"/><stop stop-opacity="1" stop-color="rgb(17.440796%, 62.612915%, 93.327332%)" offset="0.617188"/><stop stop-opacity="1" stop-color="rgb(17.584229%, 62.890625%, 93.537903%)" offset="0.621094"/><stop stop-opacity="1" stop-color="rgb(17.729187%, 63.168335%, 93.748474%)" offset="0.625"/><stop stop-opacity="1" stop-color="rgb(17.87262%, 63.446045%, 93.959045%)" offset="0.628906"/><stop stop-opacity="1" stop-color="rgb(18.016052%, 63.723755%, 94.169617%)" offset="0.632812"/><stop stop-opacity="1" stop-color="rgb(18.159485%, 64.001465%, 94.380188%)" offset="0.636719"/><stop stop-opacity="1" stop-color="rgb(18.304443%, 64.279175%, 94.592285%)" offset="0.640625"/><stop stop-opacity="1" stop-color="rgb(18.447876%, 64.556885%, 94.802856%)" offset="0.644531"/><stop stop-opacity="1" stop-color="rgb(18.592834%, 64.834595%, 95.013428%)" offset="0.648438"/><stop stop-opacity="1" stop-color="rgb(18.736267%, 65.112305%, 95.223999%)" offset="0.652344"/><stop stop-opacity="1" stop-color="rgb(18.881226%, 65.390015%, 95.436096%)" offset="0.65625"/><stop stop-opacity="1" stop-color="rgb(19.024658%, 65.667725%, 95.646667%)" offset="0.660156"/><stop stop-opacity="1" stop-color="rgb(19.169617%, 65.945435%, 95.857239%)" offset="0.664062"/><stop stop-opacity="1" stop-color="rgb(19.313049%, 66.223145%, 96.06781%)" offset="0.667969"/><stop stop-opacity="1" stop-color="rgb(19.458008%, 66.500854%, 96.278381%)" offset="0.671875"/><stop stop-opacity="1" stop-color="rgb(19.60144%, 66.778564%, 96.488953%)" offset="0.675781"/><stop stop-opacity="1" stop-color="rgb(19.744873%, 67.056274%, 96.70105%)" offset="0.679688"/><stop stop-opacity="1" stop-color="rgb(19.888306%, 67.332458%, 96.911621%)" offset="0.683594"/><stop stop-opacity="1" stop-color="rgb(20.033264%, 67.610168%, 97.122192%)" offset="0.6875"/><stop stop-opacity="1" stop-color="rgb(20.176697%, 67.887878%, 97.332764%)" offset="0.691406"/><stop stop-opacity="1" stop-color="rgb(20.321655%, 68.165588%, 97.543335%)" offset="0.695312"/><stop stop-opacity="1" stop-color="rgb(20.465088%, 68.443298%, 97.753906%)" offset="0.699219"/><stop stop-opacity="1" stop-color="rgb(20.610046%, 68.721008%, 97.966003%)" offset="0.703125"/><stop stop-opacity="1" stop-color="rgb(20.753479%, 68.998718%, 98.176575%)" offset="0.707031"/><stop stop-opacity="1" stop-color="rgb(20.898438%, 69.276428%, 98.387146%)" offset="0.710938"/><stop stop-opacity="1" stop-color="rgb(21.04187%, 69.554138%, 98.597717%)" offset="0.714844"/><stop stop-opacity="1" stop-color="rgb(21.186829%, 69.831848%, 98.809814%)" offset="0.71875"/><stop stop-opacity="1" stop-color="rgb(21.330261%, 70.109558%, 99.020386%)" offset="0.722656"/><stop stop-opacity="1" stop-color="rgb(21.473694%, 70.387268%, 99.230957%)" offset="0.726562"/><stop stop-opacity="1" stop-color="rgb(21.617126%, 70.664978%, 99.441528%)" offset="0.730469"/><stop stop-opacity="1" stop-color="rgb(21.762085%, 70.942688%, 99.6521%)" offset="0.734375"/><stop stop-opacity="1" stop-color="rgb(21.879578%, 71.170044%, 99.82605%)" offset="0.738281"/><stop stop-opacity="1" stop-color="rgb(21.998596%, 71.398926%, 100%)" offset="0.742188"/><stop stop-opacity="1" stop-color="rgb(21.998596%, 71.398926%, 100%)" offset="0.75"/><stop stop-opacity="1" stop-color="rgb(21.998596%, 71.398926%, 100%)" offset="0.968432"/><stop stop-opacity="1" stop-color="rgb(21.998596%, 71.398926%, 100%)" offset="1"/></linearGradient><clipPath id="7a08722d95"><path d="M 15.105469 7.269531 L 33.5625 7.269531 L 33.5625 25.726562 L 15.105469 25.726562 Z M 15.105469 7.269531 " clip-rule="nonzero"/></clipPath></defs><g clip-path="url(#fbba304a02)"><g clip-path="url(#3a214d51a9)"><path fill="url(#54268f1bcb)" d="M 2.835938 22.074219 L 18.46875 -5 L 45.542969 10.628906 L 29.910156 37.707031 Z M 2.835938 22.074219 " fill-rule="nonzero"/></g></g><g clip-path="url(#7a08722d95)"><path fill="#ffffff" d="M 24.242188 7.269531 C 23.640625 7.269531 23.046875 7.328125 22.457031 7.445312 C 21.871094 7.5625 21.300781 7.734375 20.746094 7.964844 C 20.191406 8.191406 19.664062 8.476562 19.164062 8.808594 C 18.667969 9.140625 18.203125 9.519531 17.78125 9.945312 C 17.355469 10.367188 16.976562 10.828125 16.644531 11.328125 C 16.3125 11.828125 16.03125 12.355469 15.800781 12.910156 C 15.570312 13.460938 15.398438 14.035156 15.28125 14.621094 C 15.164062 15.210938 15.105469 15.804688 15.105469 16.40625 C 15.105469 17.003906 15.164062 17.597656 15.28125 18.1875 C 15.398438 18.773438 15.570312 19.347656 15.800781 19.902344 C 16.03125 20.453125 16.3125 20.980469 16.644531 21.480469 C 16.976562 21.980469 17.355469 22.441406 17.78125 22.863281 C 18.203125 23.289062 18.667969 23.667969 19.164062 24 C 19.664062 24.335938 20.191406 24.617188 20.746094 24.84375 C 21.300781 25.074219 21.871094 25.25 22.457031 25.363281 C 23.046875 25.480469 23.640625 25.539062 24.242188 25.539062 C 24.839844 25.539062 25.433594 25.480469 26.023438 25.363281 C 26.613281 25.25 27.183594 25.074219 27.738281 24.84375 C 28.292969 24.617188 28.816406 24.335938 29.316406 24 C 29.816406 23.667969 30.277344 23.289062 30.703125 22.863281 C 31.125 22.441406 31.503906 21.980469 31.835938 21.480469 C 32.171875 20.980469 32.453125 20.453125 32.683594 19.902344 C 32.910156 19.347656 33.085938 18.773438 33.203125 18.1875 C 33.320312 17.597656 33.378906 17.003906 33.378906 16.40625 C 33.378906 15.804688 33.320312 15.210938 33.203125 14.621094 C 33.085938 14.035156 32.910156 13.460938 32.683594 12.910156 C 32.453125 12.355469 32.171875 11.828125 31.835938 11.328125 C 31.503906 10.828125 31.125 10.367188 30.703125 9.945312 C 30.277344 9.519531 29.816406 9.140625 29.316406 8.808594 C 28.816406 8.476562 28.292969 8.191406 27.738281 7.964844 C 27.183594 7.734375 26.613281 7.5625 26.023438 7.445312 C 25.433594 7.328125 24.839844 7.269531 24.242188 7.269531 Z M 25.546875 19.59375 C 25.375 19.617188 25.222656 19.574219 25.09375 19.460938 C 24.960938 19.347656 24.894531 19.203125 24.894531 19.03125 L 24.894531 17.53125 C 24.894531 17.398438 24.933594 17.28125 25.015625 17.179688 C 25.097656 17.078125 25.199219 17.011719 25.328125 16.980469 C 25.570312 16.925781 25.792969 16.828125 25.996094 16.691406 C 26.203125 16.550781 26.375 16.378906 26.511719 16.171875 C 26.652344 15.96875 26.75 15.746094 26.804688 15.503906 C 26.859375 15.261719 26.867188 15.019531 26.828125 14.773438 C 26.789062 14.527344 26.707031 14.300781 26.582031 14.085938 C 26.457031 13.871094 26.300781 13.6875 26.105469 13.535156 C 25.910156 13.382812 25.695312 13.269531 25.457031 13.199219 C 25.21875 13.125 24.976562 13.101562 24.730469 13.121094 C 24.484375 13.144531 24.25 13.207031 24.027344 13.316406 C 23.804688 13.425781 23.609375 13.574219 23.445312 13.757812 C 23.277344 13.941406 23.148438 14.148438 23.0625 14.378906 C 22.976562 14.613281 22.933594 14.851562 22.9375 15.097656 L 22.9375 21.300781 C 22.9375 21.429688 22.910156 21.554688 22.859375 21.671875 C 22.8125 21.792969 22.742188 21.898438 22.648438 21.992188 C 22.558594 22.082031 22.453125 22.152344 22.332031 22.203125 C 22.210938 22.253906 22.085938 22.277344 21.957031 22.277344 L 21.304688 22.277344 C 21.175781 22.277344 21.050781 22.253906 20.929688 22.203125 C 20.808594 22.152344 20.703125 22.082031 20.613281 21.992188 C 20.519531 21.898438 20.449219 21.792969 20.398438 21.671875 C 20.351562 21.554688 20.324219 21.429688 20.324219 21.300781 L 20.324219 15.21875 C 20.320312 14.921875 20.347656 14.628906 20.398438 14.339844 C 20.449219 14.050781 20.53125 13.769531 20.636719 13.496094 C 20.742188 13.21875 20.871094 12.957031 21.027344 12.707031 C 21.183594 12.457031 21.363281 12.226562 21.5625 12.007812 C 21.761719 11.792969 21.980469 11.597656 22.21875 11.425781 C 22.453125 11.25 22.707031 11.097656 22.972656 10.972656 C 23.238281 10.847656 23.511719 10.746094 23.796875 10.671875 C 24.082031 10.597656 24.371094 10.550781 24.664062 10.53125 C 25.238281 10.523438 25.792969 10.621094 26.328125 10.820312 C 26.863281 11.023438 27.34375 11.316406 27.773438 11.695312 C 28.199219 12.078125 28.539062 12.523438 28.800781 13.035156 C 29.058594 13.546875 29.214844 14.085938 29.269531 14.65625 C 29.324219 15.226562 29.277344 15.789062 29.121094 16.339844 C 28.964844 16.890625 28.714844 17.394531 28.371094 17.851562 C 28.023438 18.308594 27.609375 18.6875 27.121094 18.988281 C 26.632812 19.289062 26.109375 19.488281 25.546875 19.59375 Z M 25.546875 19.59375 " fill-opacity="1" fill-rule="nonzero"/></g><g fill="#38b6ff" fill-opacity="1"><g transform="translate(38.135198, 19.964937)"><g><path d="M 4.953125 -9.9375 C 5.617188 -9.9375 6.210938 -9.785156 6.734375 -9.484375 C 7.265625 -9.179688 7.6875 -8.769531 8 -8.25 C 8.3125 -7.738281 8.46875 -7.160156 8.46875 -6.515625 C 8.46875 -5.859375 8.3125 -5.269531 8 -4.75 C 7.695312 -4.238281 7.28125 -3.835938 6.75 -3.546875 C 6.21875 -3.253906 5.617188 -3.109375 4.953125 -3.109375 L 3.296875 -3.109375 L 3.296875 0 L 1.140625 0 L 1.140625 -9.9375 Z M 4.859375 -5.09375 C 5.285156 -5.09375 5.628906 -5.226562 5.890625 -5.5 C 6.148438 -5.769531 6.28125 -6.109375 6.28125 -6.515625 C 6.28125 -6.929688 6.148438 -7.269531 5.890625 -7.53125 C 5.628906 -7.800781 5.285156 -7.9375 4.859375 -7.9375 L 3.296875 -7.9375 L 3.296875 -5.09375 Z M 4.859375 -5.09375 "/></g></g></g><g fill="#38b6ff" fill-opacity="1"><g transform="translate(46.634904, 19.964937)"><g><path d="M 8.421875 -3.859375 C 8.421875 -3.660156 8.410156 -3.457031 8.390625 -3.25 L 2.59375 -3.25 C 2.675781 -2.726562 2.882812 -2.328125 3.21875 -2.046875 C 3.550781 -1.765625 3.96875 -1.625 4.46875 -1.625 C 4.832031 -1.625 5.15625 -1.703125 5.4375 -1.859375 C 5.71875 -2.015625 5.9375 -2.234375 6.09375 -2.515625 L 8.265625 -2.515625 C 7.984375 -1.679688 7.5 -1.015625 6.8125 -0.515625 C 6.132812 -0.0234375 5.351562 0.21875 4.46875 0.21875 C 3.707031 0.21875 3.023438 0.0390625 2.421875 -0.3125 C 1.828125 -0.664062 1.359375 -1.148438 1.015625 -1.765625 C 0.671875 -2.378906 0.5 -3.066406 0.5 -3.828125 C 0.5 -4.597656 0.671875 -5.285156 1.015625 -5.890625 C 1.359375 -6.503906 1.828125 -6.988281 2.421875 -7.34375 C 3.023438 -7.695312 3.707031 -7.875 4.46875 -7.875 C 5.25 -7.875 5.9375 -7.691406 6.53125 -7.328125 C 7.132812 -6.960938 7.597656 -6.476562 7.921875 -5.875 C 8.253906 -5.269531 8.421875 -4.597656 8.421875 -3.859375 Z M 4.46875 -6.109375 C 4.007812 -6.109375 3.617188 -5.976562 3.296875 -5.71875 C 2.984375 -5.46875 2.769531 -5.117188 2.65625 -4.671875 L 6.359375 -4.671875 C 6.054688 -5.628906 5.425781 -6.109375 4.46875 -6.109375 Z M 4.46875 -6.109375 "/></g></g></g><g fill="#38b6ff" fill-opacity="1"><g transform="translate(55.219748, 19.964937)"><g><path d="M 5.171875 -7.875 C 5.941406 -7.875 6.628906 -7.695312 7.234375 -7.34375 C 7.835938 -7 8.3125 -6.519531 8.65625 -5.90625 C 9.007812 -5.300781 9.1875 -4.609375 9.1875 -3.828125 C 9.1875 -3.054688 9.007812 -2.363281 8.65625 -1.75 C 8.3125 -1.144531 7.835938 -0.660156 7.234375 -0.296875 C 6.628906 0.0546875 5.941406 0.234375 5.171875 0.234375 C 4.773438 0.234375 4.394531 0.175781 4.03125 0.0625 C 3.675781 -0.0507812 3.351562 -0.207031 3.0625 -0.40625 L 3.0625 2.765625 L 1 2.765625 L 1 -7.65625 L 2.375 -7.65625 L 2.71875 -6.96875 C 3.039062 -7.25 3.410156 -7.46875 3.828125 -7.625 C 4.242188 -7.789062 4.691406 -7.875 5.171875 -7.875 Z M 5.015625 -1.734375 C 5.410156 -1.734375 5.765625 -1.820312 6.078125 -2 C 6.390625 -2.1875 6.632812 -2.4375 6.8125 -2.75 C 7 -3.070312 7.09375 -3.429688 7.09375 -3.828125 C 7.09375 -4.222656 7 -4.578125 6.8125 -4.890625 C 6.632812 -5.210938 6.390625 -5.46875 6.078125 -5.65625 C 5.765625 -5.84375 5.410156 -5.9375 5.015625 -5.9375 C 4.597656 -5.9375 4.234375 -5.84375 3.921875 -5.65625 C 3.617188 -5.46875 3.375 -5.210938 3.1875 -4.890625 C 3.007812 -4.578125 2.921875 -4.222656 2.921875 -3.828125 C 2.921875 -3.429688 3.007812 -3.070312 3.1875 -2.75 C 3.375 -2.4375 3.617188 -2.1875 3.921875 -2 C 4.234375 -1.820312 4.597656 -1.734375 5.015625 -1.734375 Z M 5.015625 -1.734375 "/></g></g></g><g fill="#38b6ff" fill-opacity="1"><g transform="translate(64.570846, 19.964937)"><g><path d="M 7.171875 -7.65625 L 8.53125 -7.65625 L 8.53125 -0.890625 C 8.53125 -0.0859375 8.367188 0.597656 8.046875 1.171875 C 7.734375 1.753906 7.28125 2.203125 6.6875 2.515625 C 6.101562 2.828125 5.410156 2.984375 4.609375 2.984375 C 3.566406 2.984375 2.695312 2.726562 2 2.21875 C 1.3125 1.71875 0.878906 1.035156 0.703125 0.171875 L 2.765625 0.171875 C 2.878906 0.515625 3.113281 0.769531 3.46875 0.9375 C 3.820312 1.113281 4.1875 1.203125 4.5625 1.203125 C 5.09375 1.203125 5.546875 1.039062 5.921875 0.71875 C 6.296875 0.40625 6.484375 -0.03125 6.484375 -0.59375 L 6.484375 -0.875 C 6.179688 -0.65625 5.84375 -0.488281 5.46875 -0.375 C 5.101562 -0.257812 4.710938 -0.203125 4.296875 -0.203125 C 3.585938 -0.203125 2.941406 -0.367188 2.359375 -0.703125 C 1.785156 -1.046875 1.332031 -1.503906 1 -2.078125 C 0.664062 -2.660156 0.5 -3.3125 0.5 -4.03125 C 0.5 -4.75 0.664062 -5.398438 1 -5.984375 C 1.332031 -6.566406 1.785156 -7.023438 2.359375 -7.359375 C 2.941406 -7.703125 3.585938 -7.875 4.296875 -7.875 C 4.796875 -7.875 5.265625 -7.785156 5.703125 -7.609375 C 6.140625 -7.441406 6.523438 -7.203125 6.859375 -6.890625 Z M 4.546875 -2.046875 C 5.109375 -2.046875 5.570312 -2.226562 5.9375 -2.59375 C 6.3125 -2.96875 6.5 -3.445312 6.5 -4.03125 C 6.5 -4.59375 6.316406 -5.0625 5.953125 -5.4375 C 5.585938 -5.8125 5.117188 -6 4.546875 -6 C 3.984375 -6 3.515625 -5.8125 3.140625 -5.4375 C 2.773438 -5.0625 2.59375 -4.59375 2.59375 -4.03125 C 2.59375 -3.445312 2.773438 -2.96875 3.140625 -2.59375 C 3.503906 -2.226562 3.972656 -2.046875 4.546875 -2.046875 Z M 4.546875 -2.046875 "/></g></g></g><g fill="#38b6ff" fill-opacity="1"><g transform="translate(73.765854, 19.964937)"><g><path d="M 7.25 -7.671875 L 8.796875 -7.671875 L 8.796875 -0.015625 L 7.171875 -0.015625 L 7 -0.6875 C 6.664062 -0.40625 6.285156 -0.179688 5.859375 -0.015625 C 5.441406 0.140625 4.992188 0.21875 4.515625 0.21875 C 3.742188 0.21875 3.054688 0.0390625 2.453125 -0.3125 C 1.847656 -0.664062 1.367188 -1.148438 1.015625 -1.765625 C 0.671875 -2.378906 0.5 -3.070312 0.5 -3.84375 C 0.5 -4.613281 0.671875 -5.300781 1.015625 -5.90625 C 1.367188 -6.519531 1.847656 -7 2.453125 -7.34375 C 3.054688 -7.695312 3.742188 -7.875 4.515625 -7.875 C 5.003906 -7.875 5.460938 -7.789062 5.890625 -7.625 C 6.316406 -7.457031 6.691406 -7.226562 7.015625 -6.9375 Z M 4.6875 -1.75 C 5.082031 -1.75 5.4375 -1.835938 5.75 -2.015625 C 6.070312 -2.191406 6.320312 -2.4375 6.5 -2.75 C 6.675781 -3.070312 6.765625 -3.4375 6.765625 -3.84375 C 6.765625 -4.238281 6.675781 -4.59375 6.5 -4.90625 C 6.320312 -5.226562 6.070312 -5.476562 5.75 -5.65625 C 5.4375 -5.84375 5.082031 -5.9375 4.6875 -5.9375 C 4.28125 -5.9375 3.921875 -5.84375 3.609375 -5.65625 C 3.296875 -5.476562 3.046875 -5.226562 2.859375 -4.90625 C 2.679688 -4.59375 2.59375 -4.238281 2.59375 -3.84375 C 2.59375 -3.4375 2.679688 -3.078125 2.859375 -2.765625 C 3.046875 -2.453125 3.296875 -2.203125 3.609375 -2.015625 C 3.921875 -1.835938 4.28125 -1.75 4.6875 -1.75 Z M 4.6875 -1.75 "/></g></g></g><g fill="#38b6ff" fill-opacity="1"><g transform="translate(83.230471, 19.964937)"><g><path d="M 7.171875 -7.65625 L 8.53125 -7.65625 L 8.53125 -0.890625 C 8.53125 -0.0859375 8.367188 0.597656 8.046875 1.171875 C 7.734375 1.753906 7.28125 2.203125 6.6875 2.515625 C 6.101562 2.828125 5.410156 2.984375 4.609375 2.984375 C 3.566406 2.984375 2.695312 2.726562 2 2.21875 C 1.3125 1.71875 0.878906 1.035156 0.703125 0.171875 L 2.765625 0.171875 C 2.878906 0.515625 3.113281 0.769531 3.46875 0.9375 C 3.820312 1.113281 4.1875 1.203125 4.5625 1.203125 C 5.09375 1.203125 5.546875 1.039062 5.921875 0.71875 C 6.296875 0.40625 6.484375 -0.03125 6.484375 -0.59375 L 6.484375 -0.875 C 6.179688 -0.65625 5.84375 -0.488281 5.46875 -0.375 C 5.101562 -0.257812 4.710938 -0.203125 4.296875 -0.203125 C 3.585938 -0.203125 2.941406 -0.367188 2.359375 -0.703125 C 1.785156 -1.046875 1.332031 -1.503906 1 -2.078125 C 0.664062 -2.660156 0.5 -3.3125 0.5 -4.03125 C 0.5 -4.75 0.664062 -5.398438 1 -5.984375 C 1.332031 -6.566406 1.785156 -7.023438 2.359375 -7.359375 C 2.941406 -7.703125 3.585938 -7.875 4.296875 -7.875 C 4.796875 -7.875 5.265625 -7.785156 5.703125 -7.609375 C 6.140625 -7.441406 6.523438 -7.203125 6.859375 -6.890625 Z M 4.546875 -2.046875 C 5.109375 -2.046875 5.570312 -2.226562 5.9375 -2.59375 C 6.3125 -2.96875 6.5 -3.445312 6.5 -4.03125 C 6.5 -4.59375 6.316406 -5.0625 5.953125 -5.4375 C 5.585938 -5.8125 5.117188 -6 4.546875 -6 C 3.984375 -6 3.515625 -5.8125 3.140625 -5.4375 C 2.773438 -5.0625 2.59375 -4.59375 2.59375 -4.03125 C 2.59375 -3.445312 2.773438 -2.96875 3.140625 -2.59375 C 3.503906 -2.226562 3.972656 -2.046875 4.546875 -2.046875 Z M 4.546875 -2.046875 "/></g></g></g><g fill="#38b6ff" fill-opacity="1"><g transform="translate(92.42548, 19.964937)"><g><path d="M 8.421875 -3.859375 C 8.421875 -3.660156 8.410156 -3.457031 8.390625 -3.25 L 2.59375 -3.25 C 2.675781 -2.726562 2.882812 -2.328125 3.21875 -2.046875 C 3.550781 -1.765625 3.96875 -1.625 4.46875 -1.625 C 4.832031 -1.625 5.15625 -1.703125 5.4375 -1.859375 C 5.71875 -2.015625 5.9375 -2.234375 6.09375 -2.515625 L 8.265625 -2.515625 C 7.984375 -1.679688 7.5 -1.015625 6.8125 -0.515625 C 6.132812 -0.0234375 5.351562 0.21875 4.46875 0.21875 C 3.707031 0.21875 3.023438 0.0390625 2.421875 -0.3125 C 1.828125 -0.664062 1.359375 -1.148438 1.015625 -1.765625 C 0.671875 -2.378906 0.5 -3.066406 0.5 -3.828125 C 0.5 -4.597656 0.671875 -5.285156 1.015625 -5.890625 C 1.359375 -6.503906 1.828125 -6.988281 2.421875 -7.34375 C 3.023438 -7.695312 3.707031 -7.875 4.46875 -7.875 C 5.25 -7.875 5.9375 -7.691406 6.53125 -7.328125 C 7.132812 -6.960938 7.597656 -6.476562 7.921875 -5.875 C 8.253906 -5.269531 8.421875 -4.597656 8.421875 -3.859375 Z M 4.46875 -6.109375 C 4.007812 -6.109375 3.617188 -5.976562 3.296875 -5.71875 C 2.984375 -5.46875 2.769531 -5.117188 2.65625 -4.671875 L 6.359375 -4.671875 C 6.054688 -5.628906 5.425781 -6.109375 4.46875 -6.109375 Z M 4.46875 -6.109375 "/></g></g></g></svg>